#!OML:ASF H:\Not Pregnant\Project 1\Capture day 1\Session 1\non-pregnant.ASF
:FULLY-SPECIFIED
:DEGREES
323
root -7.25732 16.2372 -0.788382 -169.072 7.24891 -172.084
lowerback -2.29899 5.19774 9.44778
upperback -7.59935 7.79813 -0.134512
thorax -5.5206 3.65053 -5.52087
lowerneck 25.0605 -5.85485 -30.0509
upperneck -7.34452 -19.4233 41.5479
head 1.45934 -13.636 21.8706
rclavicle 2.44008e-014 1.55052e-014
rhumerus -33.2863 -10.1353 -85.8175
rradius 28.7501
rwrist 20.8539
rhand -10.5363 -0.275776
rfingers 7.12502
rthumb 15.4671 -29.677
lclavicle 2.44008e-014 1.55052e-014
lhumerus -47.8353 -0.779673 83.7475
lradius 29.0723
lwrist 34.35
lhand -15.0485 -9.77954
lfingers 7.12502
lthumb 11.118 19.9059
rfemur 6.94349 6.2299 30.9986
rtibia 14.2086
rfoot -13.235 18.2482
rtoes -16.3959
lfemur -44.1506 2.14878 -11.6747
ltibia 28.8868
lfoot -8.50841 -3.38606
ltoes -24.6241
324
root -7.27787 16.2547 -0.980253 -168.996 7.28692 -172.292
lowerback -2.62225 5.17613 9.27196
upperback -7.69608 7.75333 -0.204029
thorax -5.45855 3.64567 -5.46979
lowerneck 25.0658 -5.78952 -30.0862
upperneck -7.14106 -19.4088 41.4788
head 1.49666 -13.6275 21.8415
rclavicle 7.50909e-014 2.70347e-014
rhumerus -33.7951 -10.4566 -85.676
rradius 28.4041
rwrist 21.1628
rhand -10.3901 -0.191301
rfingers 7.12502
rthumb 15.608 -29.5816
lclavicle 7.50909e-014 2.70347e-014
lhumerus -48.2194 -0.54842 83.5678
lradius 28.9039
lwrist 34.2812
lhand -14.95 -9.76148
lfingers 7.12502
lthumb 11.213 19.9189
rfemur 7.46268 6.42604 30.6684
rtibia 14.1401
rfoot -12.1277 18.4373
rtoes -17.0596
lfemur -44.0605 1.99509 -12.0913
ltibia 29.5042
lfoot -7.50032 -4.07572
ltoes -23.7498
325
root -7.29719 16.2695 -1.1719 -168.957 7.2926 -172.58
lowerback -2.92992 5.13028 9.00486
upperback -7.77692 7.67273 -0.288544
thorax -5.40035 3.62609 -5.3865
lowerneck 25.0441 -5.73334 -30.127
upperneck -6.91781 -19.4053 41.4011
head 1.54821 -13.6212 21.8009
rclavicle -2.22142e-014 -8.74653e-015
rhumerus -34.2821 -10.79 -85.5147
rradius 27.9924
rwrist 21.5329
rhand -10.2558 -0.10644
rfingers 7.12502
rthumb 15.7373 -29.4866
lclavicle -2.22142e-014 -8.74653e-015
lhumerus -48.5788 -0.313169 83.3823
lradius 28.7399
lwrist 34.2298
lhand -14.8533 -9.76924
lfingers 7.12502
lthumb 11.3063 19.906
rfemur 7.75828 6.59224 30.2755
rtibia 14.531
rfoot -11.1013 18.5681
rtoes -17.7167
lfemur -43.8727 1.80364 -12.5604
ltibia 30.071
lfoot -6.58352 -4.72307
ltoes -22.8226
326
root -7.31474 16.2819 -1.36258 -168.956 7.26875 -172.957
lowerback -3.21622 5.06044 8.63282
upperback -7.84325 7.55799 -0.390174
thorax -5.35108 3.59293 -5.26654
lowerneck 25.0081 -5.68148 -30.1688
upperneck -6.68974 -19.4047 41.3211
head 1.60473 -13.615 21.7563
rclavicle 4.01545e-014 3.65764e-014
rhumerus -34.7508 -11.1419 -85.3286
rradius 27.5223
rwrist 21.9736
rhand -10.1131 -0.034736
rfingers 7.12502
rthumb 15.8747 -29.404
lclavicle 4.01545e-014 3.65764e-014
lhumerus -48.9185 -0.0813912 83.1913
lradius 28.5944
lwrist 34.1841
lhand -14.7983 -9.69515
lfingers 7.12502
lthumb 11.3593 19.9772
rfemur 7.80465 6.7166 29.8132
rtibia 15.4227
rfoot -10.152 18.6474
rtoes -18.2922
lfemur -43.5866 1.57686 -13.0943
ltibia 30.5961
lfoot -5.81956 -5.26003
ltoes -21.8094
327
root -7.33025 16.2926 -1.55194 -168.989 7.21191 -173.436
lowerback -3.48302 4.96507 8.13836
upperback -7.896 7.40763 -0.514452
thorax -5.31122 3.54629 -5.10583
lowerneck 24.9592 -5.63699 -30.2029
upperneck -6.46793 -19.405 41.2393
head 1.66122 -13.6078 21.7069
rclavicle -5.41688e-015 9.54166e-015
rhumerus -35.2007 -11.5198 -85.1132
rradius 27.0009
rwrist 22.497
rhand -9.9613 0.0380093
rfingers 7.12502
rthumb 16.0209 -29.3196
lclavicle -5.41688e-015 9.54166e-015
lhumerus -49.2271 0.14673 82.9939
lradius 28.4579
lwrist 34.132
lhand -14.7785 -9.56376
lfingers 7.12502
lthumb 11.3784 20.1075
rfemur 7.62761 6.77023 29.2612
rtibia 16.7491
rfoot -9.2266 18.6993
rtoes -18.8021
lfemur -43.2299 1.33412 -13.7304
ltibia 31.0882
lfoot -5.28418 -5.65869
ltoes -20.8603
328
root -7.3439 16.3022 -1.73985 -169.054 7.12163 -173.986
lowerback -3.72941 4.84577 7.55647
upperback -7.93451 7.22598 -0.652855
thorax -5.27693 3.48721 -4.91415
lowerneck 24.9086 -5.59444 -30.2308
upperneck -6.26334 -19.3996 41.1621
head 1.7112 -13.5981 21.6602
rclavicle 3.50358e-014 2.06736e-014
rhumerus -35.6372 -11.9187 -84.8667
rradius 26.4472
rwrist 23.1018
rhand -9.77391 0.0996966
rfingers 7.12502
rthumb 16.2014 -29.2433
lclavicle 3.50358e-014 2.06736e-014
lhumerus -49.5062 0.373865 82.788
lradius 28.3177
lwrist 34.0454
lhand -14.771 -9.39286
lfingers 7.12502
lthumb 11.3856 20.278
rfemur 7.27767 6.74389 28.6462
rtibia 18.4014
rfoot -8.22879 18.7472
rtoes -19.2167
lfemur -42.82 1.06858 -14.4328
ltibia 31.5515
lfoot -4.99683 -5.91158
ltoes -20.0042
